<svg width="300" height="76" viewBox="0 0 300 76" fill="none" xmlns="http://www.w3.org/2000/svg">
<path d="M32.916 11.1533L28.6296 13.5527V26.5926L33.0962 29.0773L37.6386 26.4219V13.638L32.916 11.1533Z" fill="#F4BB19"/>
<path d="M40.8059 46.4886V42.1167L46.126 39.1104L55.4764 44.6867V49.8363L51.0193 52.4917L40.8059 46.4886Z" fill="#F4BB19"/>
<path d="M19.8862 39.1953L25.377 42.2016V46.4029L15.4292 52.3206L10.7065 49.6652V44.4303L19.8862 39.1953Z" fill="#F4BB19"/>
<path d="M10.5359 30.1107V25.0464L15.1732 22.391L33.011 32.5954L51.0195 22.3057L55.562 25.0464V30.196L37.5534 40.4857V61.1505L33.0963 63.9861L28.5444 61.0651V40.4857L10.5359 30.1107Z" fill="#F4BB19"/>
<path d="M33.1057 0L0 19.1664V56.9585L33.3238 75.9257L66.0977 56.9585V18.8724L33.1057 0ZM59.0801 52.9185L33.2669 67.8457L7.02703 52.9185V23.159L33.0962 8.07055L59.0801 22.9029V52.9185Z" fill="#F4BB19"/>
<path d="M92.6028 60.9607H90.1372V54.6256H92.527C92.7666 54.5941 93.0102 54.6148 93.2411 54.6862C93.472 54.7576 93.6847 54.878 93.8648 55.0391C94.0449 55.2003 94.1881 55.3985 94.2845 55.6201C94.3809 55.8417 94.4284 56.0815 94.4236 56.3232C94.4285 56.6238 94.3398 56.9185 94.1699 57.1665C94 57.4145 93.7573 57.6037 93.4753 57.7078C93.7872 57.8139 94.0564 58.0181 94.2427 58.2899C94.429 58.5617 94.5224 58.8864 94.509 59.2157C94.5228 59.4626 94.4815 59.7095 94.3882 59.9385C94.2949 60.1676 94.1519 60.373 93.9695 60.54C93.7871 60.707 93.5699 60.8314 93.3335 60.9041C93.0971 60.9769 92.8476 60.9962 92.6028 60.9607ZM92.4701 55.2705H90.801V57.4707H92.4511C93.1529 57.4707 93.7029 57.1198 93.7029 56.3706C93.7029 55.6214 93.1529 55.2326 92.4511 55.2326L92.4701 55.2705ZM92.5459 58.1156H90.801V60.4391H92.527C92.6883 60.4537 92.851 60.4345 93.0045 60.3827C93.1581 60.331 93.2992 60.2478 93.4188 60.1385C93.5384 60.0292 93.634 59.8962 93.6993 59.7479C93.7647 59.5996 93.7985 59.4394 93.7985 59.2773C93.7985 59.1153 93.7647 58.955 93.6993 58.8067C93.634 58.6585 93.5384 58.5254 93.4188 58.4161C93.2992 58.3068 93.1581 58.2237 93.0045 58.1719C92.851 58.1202 92.6883 58.101 92.527 58.1156H92.5459Z" fill="#F4BB19"/>
<path d="M101.583 60.961V54.626H102.257V60.961H101.583Z" fill="#F4BB19"/>
<path d="M113.656 60.961L110.289 55.8588V60.9326H109.616V54.626H110.251L113.618 59.6902V54.626H114.291V60.961H113.656Z" fill="#F4BB19"/>
<path d="M125.339 60.961L124.827 59.529H122.067L121.555 60.961H120.834L123.167 54.626H123.736L126.06 60.961H125.339ZM123.442 55.6028L122.247 58.941H124.618L123.442 55.6028Z" fill="#F4BB19"/>
<path d="M136.633 60.961L133.267 55.8588V60.9326H132.593V54.626H133.229L136.595 59.6902V54.626H137.268V60.961H136.633Z" fill="#F4BB19"/>
<path d="M146.6 61.0177C146.3 61.022 146.002 60.9663 145.723 60.8539C145.445 60.7416 145.191 60.5748 144.978 60.3633C144.381 59.7659 144.381 59.1399 144.381 57.7933C144.381 56.4466 144.381 55.8302 144.978 55.2327C145.191 55.0212 145.445 54.8544 145.723 54.7421C146.002 54.6297 146.3 54.574 146.6 54.5783C147.138 54.5605 147.663 54.7457 148.07 55.0971C148.478 55.4485 148.738 55.9404 148.8 56.475H148.098C148.047 56.1157 147.867 55.7873 147.591 55.5515C147.315 55.3157 146.963 55.1889 146.6 55.1948C146.397 55.1917 146.195 55.2286 146.006 55.3034C145.818 55.3783 145.646 55.4896 145.5 55.631C145.102 56.0483 145.064 56.4845 145.064 57.8028C145.064 59.121 145.064 59.5667 145.5 59.9745C145.793 60.2627 146.189 60.4229 146.6 60.4202C146.965 60.4267 147.32 60.3005 147.599 60.065C147.878 59.8296 148.062 59.5009 148.117 59.14H148.8C148.734 59.6712 148.472 60.1584 148.064 60.5059C147.657 60.8534 147.135 61.036 146.6 61.0177V61.0177Z" fill="#F4BB19"/>
<path d="M155.799 60.961V54.626H159.734V55.2329H156.481V57.4711H159.25V58.0685H156.481V60.3636H159.734V60.961H155.799Z" fill="#F4BB19"/>
<path d="M178.435 60.961L175.106 55.8588V60.9326H174.433V54.626H175.068L178.435 59.6902V54.626H179.108V60.961H178.435Z" fill="#F4BB19"/>
<path d="M190.118 60.961L189.616 59.529H186.847L186.334 60.961H185.614L187.947 54.626H188.516L190.839 60.961H190.118ZM188.222 55.6028L187.027 58.941H189.398L188.222 55.6028Z" fill="#F4BB19"/>
<path d="M202.124 60.961V56.1528L200.388 59.9463H199.81L198.046 56.1528V60.961H197.373V54.626H198.046L200.113 59.1212L202.124 54.626H202.797V60.961H202.124Z" fill="#F4BB19"/>
<path d="M210.194 60.961V54.626H214.12V55.2329H210.867V57.4711H213.646V58.0685H210.867V60.3636H214.12V60.961H210.194Z" fill="#F4BB19"/>
<path d="M230.365 61.0176C229.964 61.0457 229.562 60.9855 229.186 60.8413C228.811 60.6971 228.472 60.4724 228.193 60.1831L228.658 59.7184C228.877 59.9538 229.145 60.138 229.443 60.2577C229.742 60.3774 230.063 60.4296 230.384 60.4107C231.332 60.4107 231.873 59.9744 231.873 59.2347C231.882 59.0893 231.86 58.9437 231.807 58.8078C231.755 58.6718 231.674 58.5489 231.569 58.4476C231.338 58.2536 231.046 58.1463 230.744 58.1441L230.004 58.0303C229.579 57.9761 229.177 57.8091 228.838 57.5466C228.678 57.3953 228.552 57.2109 228.47 57.0062C228.388 56.8015 228.352 56.5814 228.364 56.3612C228.363 56.1052 228.417 55.8521 228.522 55.6187C228.627 55.3854 228.781 55.1772 228.973 55.0083C229.165 54.8394 229.392 54.7136 229.637 54.6394C229.882 54.5653 230.14 54.5444 230.393 54.5783C230.74 54.5579 231.087 54.6089 231.413 54.728C231.739 54.8471 232.038 55.0317 232.29 55.2706L231.854 55.7068C231.656 55.5213 231.424 55.3777 231.169 55.2848C230.915 55.1919 230.645 55.1516 230.374 55.1662C229.53 55.1662 229.037 55.6309 229.037 56.3327C229.026 56.4681 229.046 56.6042 229.095 56.7308C229.144 56.8573 229.222 56.971 229.322 57.063C229.573 57.2484 229.866 57.3689 230.175 57.4139L230.867 57.5182C231.289 57.5472 231.692 57.7026 232.024 57.9639C232.203 58.1201 232.345 58.3146 232.438 58.533C232.532 58.7513 232.575 58.9879 232.565 59.2252C232.555 60.3348 231.683 61.0176 230.365 61.0176Z" fill="#F4BB19"/>
<path d="M239.488 60.961V54.626H243.385V55.2329H240.161V57.4711H242.939V58.0685H240.161V60.3636H243.385V60.961H239.488Z" fill="#F4BB19"/>
<path d="M253.987 60.9608L252.546 58.1158H251.019V60.9608H250.346V54.6258H252.774C253.018 54.5999 253.265 54.6267 253.497 54.7043C253.73 54.7819 253.944 54.9086 254.124 55.0758C254.303 55.243 254.445 55.4468 254.54 55.6735C254.634 55.9001 254.678 56.1444 254.67 56.3897C254.691 56.7941 254.561 57.1918 254.305 57.5055C254.049 57.8193 253.686 58.0267 253.286 58.0873L254.794 60.9324L253.987 60.9608ZM252.707 55.2707H251.019V57.5942H252.707C252.869 57.6088 253.031 57.5896 253.185 57.5378C253.338 57.4861 253.479 57.4029 253.599 57.2936C253.719 57.1843 253.814 57.0513 253.88 56.903C253.945 56.7547 253.979 56.5945 253.979 56.4324C253.979 56.2704 253.945 56.1101 253.88 55.9618C253.814 55.8136 253.719 55.6805 253.599 55.5712C253.479 55.4619 253.338 55.3788 253.185 55.327C253.031 55.2753 252.869 55.2561 252.707 55.2707V55.2707Z" fill="#F4BB19"/>
<path d="M263.49 60.961H262.94L260.853 54.626H261.565L263.215 59.7566L264.855 54.626H265.566L263.49 60.961Z" fill="#F4BB19"/>
<path d="M272.072 60.961V54.626H272.783V60.961H272.072Z" fill="#F4BB19"/>
<path d="M282.077 61.017C281.471 61.0225 280.887 60.7871 280.455 60.3627C279.867 59.7652 279.867 59.1393 279.867 57.7926C279.867 56.4459 279.867 55.8295 280.455 55.232C280.887 54.8075 281.471 54.5722 282.077 54.5777C282.615 54.5576 283.141 54.742 283.549 55.0938C283.957 55.4457 284.217 55.9388 284.277 56.4744H283.584C283.531 56.1142 283.349 55.7857 283.072 55.5501C282.794 55.3145 282.44 55.1879 282.077 55.1941C281.875 55.1901 281.674 55.2267 281.487 55.3017C281.3 55.3766 281.129 55.4884 280.986 55.6303C280.588 56.0476 280.54 56.4839 280.54 57.8021C280.54 59.1203 280.588 59.566 280.986 59.9738C281.188 60.1712 281.44 60.3099 281.714 60.375C281.989 60.4401 282.276 60.4292 282.546 60.3434C282.815 60.2576 283.055 60.1002 283.241 59.8881C283.428 59.676 283.553 59.4171 283.603 59.1393H284.277C284.211 59.6705 283.948 60.1578 283.541 60.5053C283.134 60.8528 282.611 61.0353 282.077 61.017V61.017Z" fill="#F4BB19"/>
<path d="M291.285 60.961V54.626H295.211V55.2329H291.958V57.4711H294.737V58.0685H291.958V60.3636H295.211V60.961H291.285Z" fill="#F4BB19"/>
<path d="M294.898 21.9547C294.26 21.9547 293.637 21.7656 293.107 21.4113C292.576 21.057 292.163 20.5534 291.919 19.9642C291.675 19.375 291.611 18.7267 291.736 18.1012C291.86 17.4758 292.167 16.9012 292.618 16.4503C293.069 15.9993 293.643 15.6922 294.269 15.5678C294.894 15.4434 295.543 15.5073 296.132 15.7513C296.721 15.9954 297.224 16.4086 297.579 16.9389C297.933 17.4691 298.122 18.0926 298.122 18.7303C298.122 19.5855 297.782 20.4056 297.178 21.0103C296.573 21.615 295.753 21.9547 294.898 21.9547V21.9547ZM294.898 15.98C294.352 15.9725 293.817 16.1274 293.36 16.425C292.903 16.7226 292.544 17.1494 292.33 17.6513C292.116 18.1531 292.056 18.7072 292.158 19.2432C292.26 19.7792 292.519 20.2728 292.902 20.6612C293.285 21.0496 293.775 21.3153 294.309 21.4246C294.844 21.5338 295.399 21.4816 295.903 21.2746C296.408 21.0676 296.84 20.7152 297.144 20.2621C297.448 19.809 297.61 19.2758 297.61 18.7303C297.603 18.0141 297.314 17.3295 296.807 16.824C296.3 16.3184 295.614 16.0324 294.898 16.0275V15.98ZM295.675 20.4942L294.869 19.0527H294.338V20.4942H293.845V16.9758H295.05C295.192 16.9708 295.334 16.9941 295.467 17.0445C295.6 17.0949 295.722 17.1713 295.825 17.2693C295.929 17.3674 296.011 17.485 296.069 17.6153C296.126 17.7457 296.157 17.8861 296.159 18.0285C296.164 18.2504 296.09 18.4668 295.951 18.6401C295.813 18.8133 295.618 18.9325 295.4 18.9769L296.254 20.4753L295.675 20.4942ZM294.993 17.4026H294.338V18.6355H294.993C295.156 18.6355 295.313 18.5705 295.429 18.4549C295.544 18.3393 295.609 18.1825 295.609 18.019C295.609 17.8555 295.544 17.6987 295.429 17.5831C295.313 17.4675 295.156 17.4026 294.993 17.4026V17.4026Z" fill="#F4BB19"/>
<path d="M83.177 31.2011V31.1063C83.152 29.0114 83.55 26.9331 84.3471 24.9957C85.1442 23.0583 86.324 21.3016 87.8159 19.8309C89.3078 18.3602 91.0811 17.2056 93.0297 16.4364C94.9782 15.6671 97.062 15.299 99.1561 15.354C105.349 15.354 109.332 17.9525 112.015 21.6701L105.69 26.5636C103.964 24.4014 101.973 23.0168 99.0518 23.0168C94.8033 23.0168 91.8161 26.611 91.8161 31.0209V31.1063C91.8161 35.6584 94.8033 39.2053 99.0518 39.2053C102.21 39.2053 104.068 37.7353 105.889 35.5256L112.214 40.0303C109.369 43.966 105.5 46.868 98.7863 46.868C96.7231 46.8989 94.6748 46.5143 92.7633 45.7372C90.8518 44.9601 89.1162 43.8063 87.6598 42.3445C86.2033 40.8827 85.0559 39.1429 84.2858 37.2285C83.5157 35.3141 83.1386 33.2643 83.177 31.2011Z" fill="#F4BB19"/>
<path d="M145.348 46.4596H135.96L129.075 27.2838L122.19 46.4596H112.963L125.263 15.9414H133.058L145.348 46.4596Z" fill="#F4BB19"/>
<path d="M148.298 15.9414H156.131L168.601 31.9592V15.9414H176.909V46.2415H169.55L156.605 29.6168V46.2415H148.298V15.9414Z" fill="#F4BB19"/>
<path d="M212.243 46.4596H202.845L195.96 27.2838L189.075 46.4596H179.858L192.148 15.9414H199.943L212.243 46.4596Z" fill="#F4BB19"/>
<path d="M211.816 41.7371L216.491 36.1607C219.25 38.4676 222.72 39.7507 226.316 39.7929C228.563 39.7929 229.777 39.0153 229.777 37.716V37.6307C229.777 36.3694 228.829 35.6771 224.675 34.7287C218.217 33.2587 213.239 31.4379 213.239 25.2451V25.1503C213.239 19.5265 217.705 15.458 224.979 15.458C230.128 15.458 234.149 16.8426 237.44 19.4791L233.239 25.4158C230.779 23.5865 227.823 22.545 224.761 22.4285C222.722 22.4285 221.726 23.2915 221.726 24.3726V24.4579C221.726 25.8426 222.769 26.4495 226.97 27.4073C233.94 28.9247 238.265 31.2008 238.265 36.891C238.265 43.0837 233.371 46.7634 226.012 46.7634C220.814 46.8956 215.749 45.106 211.788 41.7371" fill="#F4BB19"/>
<path d="M248.867 23.3007H239.782V15.9414H266.363V23.3007H257.269V46.2415H248.867V23.3007Z" fill="#F4BB19"/>
<path d="M300 46.4596H290.602L283.727 27.2838L276.842 46.4596H267.615L279.915 15.9414H287.71L300 46.4596Z" fill="#F4BB19"/>
</svg>
