<svg width="226" height="58" viewBox="0 0 226 58" fill="none" xmlns="http://www.w3.org/2000/svg">
<path d="M30.73 31.71V35L38.41 39.52L41.77 37.52V33.65L34.73 29.45L30.73 31.71ZM108.31 41.9L107.06 39.24H106.41V43.52H107.06V40.66L108.07 42.74H108.55L109.53 40.66V43.52H110.18V39.24H109.53L108.31 41.9ZM8.06 33.45V37.39L11.61 39.39L19.1 34.93V31.77L14.97 29.51L8.06 33.45ZM100.19 12H94.32L85.06 34.98H92L97.18 20.54L102.36 34.98H109.43L100.19 12ZM97.1 39.24L95.53 43.52H96.22L96.51 42.66H98.2L98.49 43.52H99.18L97.61 39.24H97.1ZM96.71 42.1L97.38 40.2L98.03 42.1H96.71ZM0 14.43V42.88L25.09 57.15L49.77 42.88V14.18L24.93 0L0 14.43ZM44.49 39.85L25.05 51.08L5.29 39.85V17.44L24.92 6.07L44.49 17.24V39.85ZM87.66 42.24L85.68 39.24H85.09V43.52H85.74V40.5L87.72 43.51H88.31V39.23H87.66V42.24ZM21.56 10.2V20.02L24.92 21.89L28.34 19.89V10.27L24.79 8.4L21.56 10.2ZM11.42 16.86L7.93 18.86V22.67L21.49 30.48V45.98L24.91 48.18L28.27 46.05V30.48L41.83 22.73V18.86L38.41 16.79L24.85 24.54L11.42 16.86ZM74.6 29.51C71.41 29.51 69.16 26.84 69.16 23.41V23.34C69.16 20.01 71.41 17.31 74.6 17.31C76.78 17.31 78.28 18.35 79.59 19.98L84.35 16.3C82.33 13.5 79.33 11.54 74.67 11.54C67.76 11.54 62.64 16.76 62.64 23.41V23.48C62.64 30.29 67.89 35.28 74.41 35.28C79.46 35.28 82.36 33.1 84.52 30.13L79.76 26.74C78.38 28.4 76.98 29.51 74.6 29.51ZM159.6 40.49C159.6 39.76 159.08 39.24 158.27 39.24H156.61V43.52H157.26V41.72H158.07L158.97 43.52H159.73L158.75 41.63C159.22 41.49 159.6 41.1 159.6 40.49ZM157.26 41.16V39.82H158.22C158.65 39.82 158.95 40.07 158.95 40.49C158.95 40.91 158.66 41.16 158.22 41.16H157.26ZM186.93 39.78C187.4 39.78 187.69 40.08 187.79 40.51H188.45C188.3 39.66 187.71 39.19 186.93 39.19C186.48 39.19 186.1 39.35 185.81 39.65C185.39 40.07 185.4 40.54 185.4 41.37C185.4 42.19 185.39 42.67 185.81 43.09C186.1 43.38 186.49 43.55 186.93 43.55C187.7 43.55 188.31 43.09 188.45 42.23H187.8C187.7 42.66 187.4 42.96 186.93 42.96C186.68 42.96 186.45 42.86 186.3 42.7C186.09 42.47 186.04 42.23 186.04 41.37C186.04 40.51 186.09 40.26 186.3 40.04C186.45 39.88 186.68 39.78 186.93 39.78ZM195.94 43.51H198.67V42.93H196.59V41.65H198.37V41.07H196.59V39.82H198.67V39.24H195.94V43.51ZM117.91 43.51H120.64V42.93H118.56V41.65H120.34V41.07H118.56V39.82H120.64V39.24H117.91V43.51ZM177.17 43.51H177.82V39.23H177.17V43.51ZM216.65 12H210.78L201.52 34.98H208.46L213.64 20.54L218.82 34.98H225.89L216.65 12ZM180.56 17.54H187.41V34.82H193.73V17.54H200.58V12H180.56V17.54ZM170.91 20.6C167.75 19.88 166.97 19.43 166.97 18.38V18.31C166.97 17.49 167.72 16.84 169.25 16.84C171.27 16.84 173.55 17.62 175.64 19.09L178.8 14.62C176.32 12.63 173.29 11.59 169.41 11.59C163.93 11.59 160.57 14.65 160.57 18.89V18.96C160.57 23.65 164.32 25.02 169.18 26.13C172.28 26.85 173.03 27.37 173.03 28.31V28.38C173.03 29.36 172.12 29.94 170.42 29.94C167.78 29.94 165.27 28.99 163.02 27.2L159.5 31.41C162.3 33.92 166.15 35.19 170.19 35.19C175.73 35.19 179.42 32.42 179.42 27.76V27.69C179.42 23.44 176.16 21.75 170.91 20.6ZM137.74 41.1L137.25 41.03C137.05 41 136.88 40.93 136.77 40.83C136.66 40.73 136.61 40.59 136.61 40.43C136.61 40.05 136.89 39.76 137.39 39.76C137.75 39.76 138.06 39.84 138.32 40.09L138.73 39.68C138.36 39.34 137.97 39.19 137.4 39.19C136.51 39.19 135.97 39.7 135.97 40.44C135.97 40.79 136.07 41.06 136.28 41.26C136.47 41.43 136.74 41.55 137.09 41.6L137.59 41.67C137.84 41.71 137.95 41.75 138.06 41.85C138.17 41.95 138.23 42.11 138.23 42.3C138.23 42.71 137.9 42.95 137.35 42.95C136.91 42.95 136.57 42.85 136.26 42.54L135.83 42.97C136.24 43.38 136.7 43.54 137.34 43.54C138.23 43.54 138.88 43.07 138.88 42.28C138.88 41.91 138.77 41.61 138.53 41.4C138.35 41.26 138.13 41.16 137.74 41.1ZM126.96 24.06L117.57 12H111.67V34.82H117.93V22.3L127.68 34.82H133.22V12H126.96V24.06ZM144.7 12L135.44 34.98H142.38L147.56 20.54L152.74 34.98H159.81L150.57 12H144.7ZM168.29 42.35L167.31 39.24H166.64L168.05 43.52H168.55L169.97 39.24H169.29L168.29 42.35ZM146.37 43.51H149.1V42.93H147.02V41.65H148.8V41.07H147.02V39.82H149.1V39.24H146.37V43.51Z" fill="#F4B919"/>
</svg>
