<?xml version="1.0" encoding="UTF-8"?><svg xmlns="http://www.w3.org/2000/svg" viewBox="0 0 225.91 57.15"><defs><style>.d{fill:#fff;}</style></defs><g id="a"/><g id="b"><g id="c"><g><g><polygon class="d" points="24.79 8.4 21.56 10.2 21.56 20.02 24.92 21.89 28.34 19.89 28.34 10.27 24.79 8.4"/><polygon class="d" points="30.73 35 30.73 31.71 34.73 29.45 41.77 33.65 41.77 37.52 38.42 39.52 30.73 35"/><polygon class="d" points="14.97 29.51 19.11 31.77 19.11 34.94 11.62 39.39 8.06 37.39 8.06 33.45 14.97 29.51"/><polygon class="d" points="7.93 22.67 7.93 18.86 11.42 16.86 24.85 24.54 38.42 16.79 41.84 18.86 41.84 22.73 28.28 30.48 28.28 46.04 24.92 48.18 21.5 45.98 21.5 30.48 7.93 22.67"/><path class="d" d="M24.93,0L0,14.43v28.45l25.09,14.27,24.68-14.27V14.19L24.93,0Zm19.56,39.85l-19.44,11.24L5.29,39.85V17.44L24.92,6.07l19.57,11.17v22.6Z"/></g><g><path class="d" d="M62.64,23.47v-.07c0-6.65,5.12-11.87,12.03-11.87,4.66,0,7.66,1.96,9.68,4.76l-4.76,3.68c-1.3-1.63-2.8-2.67-4.99-2.67-3.19,0-5.44,2.71-5.44,6.03v.07c0,3.42,2.25,6.1,5.44,6.1,2.38,0,3.78-1.11,5.15-2.77l4.76,3.39c-2.15,2.97-5.05,5.15-10.11,5.15-6.52,0-11.77-4.99-11.77-11.8Z"/><path class="d" d="M109.45,34.98h-7.07l-5.18-14.44-5.18,14.44h-6.94l9.26-22.98h5.87l9.26,22.98Z"/><path class="d" d="M111.67,12h5.9l9.39,12.06V12h6.26v22.82h-5.54l-9.75-12.52v12.52h-6.26V12Z"/><path class="d" d="M159.82,34.98h-7.07l-5.18-14.44-5.18,14.44h-6.94l9.26-22.98h5.87l9.26,22.98Z"/><path class="d" d="M159.5,31.43l3.52-4.21c2.25,1.79,4.76,2.74,7.4,2.74,1.7,0,2.61-.59,2.61-1.56v-.07c0-.95-.75-1.47-3.85-2.18-4.86-1.11-8.61-2.48-8.61-7.17v-.07c0-4.24,3.36-7.3,8.84-7.3,3.88,0,6.91,1.04,9.39,3.03l-3.16,4.47c-2.09-1.47-4.37-2.25-6.39-2.25-1.53,0-2.28,.65-2.28,1.47v.07c0,1.04,.78,1.5,3.94,2.22,5.25,1.14,8.51,2.84,8.51,7.11v.07c0,4.66-3.68,7.43-9.23,7.43-4.04,0-7.89-1.27-10.69-3.78Z"/><path class="d" d="M187.41,17.54h-6.85v-5.54h20.02v5.54h-6.85v17.28h-6.32V17.54Z"/><path class="d" d="M225.91,34.98h-7.07l-5.18-14.44-5.18,14.44h-6.94l9.26-22.98h5.87l9.26,22.98Z"/></g></g><g><path class="d" d="M86.31,46.17h-2.25v-5.56h2.16c1.03,0,1.68,.59,1.68,1.52,0,.6-.38,1.03-.75,1.18,.43,.17,.84,.59,.84,1.29,0,1.02-.7,1.57-1.68,1.57Zm-.16-4.8h-1.25v1.59h1.25c.54,0,.91-.28,.91-.8s-.37-.8-.91-.8Zm.08,2.35h-1.33v1.7h1.33c.59,0,.91-.36,.91-.85s-.33-.84-.91-.84Z"/><path class="d" d="M99.23,46.17l-2.57-3.91v3.91h-.84v-5.56h.77l2.57,3.91v-3.91h.84v5.56h-.77Z"/><path class="d" d="M110.28,46.17h-2.25v-5.56h2.16c1.03,0,1.68,.59,1.68,1.52,0,.6-.38,1.03-.75,1.18,.43,.17,.84,.59,.84,1.29,0,1.02-.7,1.57-1.68,1.57Zm-.16-4.8h-1.25v1.59h1.25c.54,0,.91-.28,.91-.8s-.37-.8-.91-.8Zm.08,2.35h-1.33v1.7h1.33c.59,0,.91-.36,.91-.85s-.33-.84-.91-.84Z"/><path class="d" d="M131.61,45.65c-.35,.35-.86,.52-1.44,.52h-1.95v-5.56h1.95c.58,0,1.09,.17,1.44,.52,.6,.6,.56,1.41,.56,2.22s.04,1.7-.56,2.3Zm-.58-3.91c-.23-.26-.55-.38-.95-.38h-1.02v4.05h1.02c.4,0,.71-.12,.95-.38,.29-.32,.3-.92,.3-1.69s0-1.29-.3-1.61Z"/><path class="d" d="M143.26,45.62c-.38,.38-.88,.59-1.47,.59s-1.08-.21-1.46-.59c-.55-.55-.54-1.16-.54-2.23s0-1.69,.54-2.23c.38-.38,.87-.59,1.46-.59s1.09,.21,1.47,.59c.55,.55,.53,1.16,.53,2.23s.02,1.69-.53,2.23Zm-.64-3.96c-.2-.21-.5-.34-.83-.34s-.63,.13-.83,.34c-.27,.3-.33,.61-.33,1.73s.05,1.43,.33,1.73c.2,.21,.5,.34,.83,.34s.63-.13,.83-.34c.27-.3,.33-.61,.33-1.73s-.05-1.43-.33-1.73Z"/><path class="d" d="M155.67,46.17v-3.72l-1.28,2.71h-.62l-1.31-2.71v3.72h-.84v-5.56h.84l1.62,3.46,1.59-3.46h.84v5.56h-.84Z"/><path class="d" d="M167.73,46.17l-.38-1.12h-2.2l-.38,1.12h-.9l2.04-5.56h.68l2.04,5.56h-.9Zm-1.46-4.3l-.87,2.47h1.71l-.84-2.47Z"/><path class="d" d="M175.99,46.17v-5.56h.84v5.56h-.84Z"/><path class="d" d="M188.27,46.17l-2.57-3.91v3.91h-.84v-5.56h.77l2.57,3.91v-3.91h.84v5.56h-.77Z"/><path class="d" d="M198.54,46.22c-.84,0-1.44-.2-1.97-.73l.56-.55c.41,.41,.85,.53,1.42,.53,.73,0,1.15-.31,1.15-.85,0-.24-.07-.45-.22-.58-.14-.13-.28-.19-.61-.23l-.66-.09c-.45-.06-.81-.22-1.05-.45-.27-.26-.41-.61-.41-1.06,0-.97,.7-1.63,1.86-1.63,.73,0,1.25,.19,1.73,.63l-.54,.53c-.34-.33-.74-.43-1.21-.43-.66,0-1.02,.38-1.02,.87,0,.2,.06,.38,.21,.52,.14,.12,.37,.22,.62,.26l.63,.09c.52,.08,.8,.2,1.04,.41,.3,.27,.45,.66,.45,1.14,0,1.02-.84,1.63-2,1.63Z"/></g></g></g></svg>